Coordinates
version=1
nRows=13
nColumns=38
inDegrees=no

Units are S.I. units (second, meters, Newtons, ...)
If the header above contains a line with 'inDegrees', this indicates whether rotational values are in degrees (yes) or radians (no).

endheader
time	pelvis_tilt	pelvis_list	pelvis_rotation	pelvis_tx	pelvis_ty	pelvis_tz	hip_flexion_r	hip_adduction_r	hip_rotation_r	knee_angle_r	ankle_angle_r	subtalar_angle_r	mtp_angle_r	hip_flexion_l	hip_adduction_l	hip_rotation_l	knee_angle_l	ankle_angle_l	subtalar_angle_l	mtp_angle_l	lumbar_extension	lumbar_bending	lumbar_rotation	arm_flex_r	arm_add_r	arm_rot_r	elbow_flex_r	pro_sup_r	wrist_flex_r	wrist_dev_r	arm_flex_l	arm_add_l	arm_rot_l	elbow_flex_l	pro_sup_l	wrist_flex_l	wrist_dev_l
1.49	-0.275639	1.4214	-1.27132	0.999775	0.478417	0.931034	-0.377968	0.0718526	-0.273396	0.207093	-0.179959	0	0	0.142821	-0.0402941	-0.156999	0	-0.379936	0	0	-0.240972	0.073369	-0.115138	-0.301147	-0.246322	-0.162892	0.752937	0.355649	0	0	-0.260703	-0.228007	-0.0881896	0.680448	1.5708	0	0
1.5	-0.281339	1.42212	-1.26498	1.00057	0.468342	0.929833	-0.38522	0.0712897	-0.269779	0.212466	-0.186596	0	0	0.139026	-0.0376853	-0.157217	0	-0.379953	0	0	-0.240266	0.0719541	-0.114855	-0.302542	-0.250344	-0.154436	0.752633	0.34607	0	0	-0.26633	-0.228454	-0.0947886	0.677535	1.5708	0	0
1.51	-0.278006	1.42281	-1.26835	1.00137	0.458115	0.928823	-0.388255	0.0668871	-0.274629	0.230956	-0.184627	0	0	0.134148	-0.0335309	-0.152976	0	-0.378109	0	0	-0.239977	0.0698316	-0.113148	-0.304558	-0.250992	-0.155059	0.752406	0.342609	0	0	-0.269232	-0.228626	-0.100792	0.672329	1.5708	0	0
1.52	-0.26715	1.42255	-1.27966	1.00221	0.447724	0.928095	-0.391519	0.0607624	-0.279972	0.2523	-0.183141	0	0	0.126851	-0.0280355	-0.144117	0	-0.380359	0	0	-0.240753	0.0670032	-0.111129	-0.305816	-0.251584	-0.154991	0.75062	0.340165	0	0	-0.271271	-0.228523	-0.107259	0.666022	1.5708	0	0
1.53	-0.24768	1.42166	-1.29982	1.00313	0.437124	0.927604	-0.394862	0.0527031	-0.28624	0.276377	-0.181854	0	0	0.116622	-0.020797	-0.131475	0	-0.386603	0	0	-0.242088	0.0629996	-0.108957	-0.307511	-0.252302	-0.154208	0.748525	0.338606	0	0	-0.273429	-0.228312	-0.114598	0.65887	1.5708	0	0
1.54	-0.218306	1.43257	-1.32968	1.00426	0.425987	0.926238	-0.369685	0.0310343	-0.323622	0.351661	-0.120633	0	0	0.1173	-0.00808777	-0.111919	0	-0.356603	0	0	-0.217621	0.059775	-0.0731393	-0.339793	-0.211312	-0.274388	0.755665	0.446218	0	0	-0.24006	-0.268885	0.0568315	0.618494	1.38829	0	0
1.55	-0.185284	1.42228	-1.36472	1.00535	0.415024	0.926731	-0.387442	0.0243195	-0.319698	0.361518	-0.168476	0	0	0.0937594	-0.00107675	-0.10599	0	-0.37681	0	0	-0.240809	0.0500066	-0.106049	-0.312889	-0.255049	-0.148177	0.744498	0.325503	0	0	-0.282674	-0.226042	-0.133588	0.648534	1.5708	0	0
1.56	-0.170171	1.42634	-1.38431	1.00637	0.403362	0.92619	-0.384022	0.0137616	-0.315256	0.38744	-0.17311	0	0	0.0921746	0.00553377	-0.115719	0	-0.344902	0	0	-0.233941	0.0448898	-0.100257	-0.318154	-0.254653	-0.15158	0.741547	0.326505	0	0	-0.286764	-0.225319	-0.139201	0.643431	1.5708	0	0
1.57	-0.178346	1.41968	-1.37571	1.00815	0.391208	0.92556	-0.393761	0.00976888	-0.319238	0.410253	-0.181132	0	0	0.206488	-0.0537922	-0.396108	0.27789	-0.28372	0	0	-0.238689	0.0479496	-0.0987683	-0.330652	-0.256263	-0.159798	0.754124	0.329378	0	0	-0.296712	-0.224086	-0.146281	0.650577	1.5708	0	0
1.58	-0.160746	1.42299	-1.3933	1.00982	0.379344	0.925258	-0.389098	-0.00106732	-0.31947	0.442265	-0.189523	0	0	0.210814	-0.0591613	-0.434352	0.311027	-0.310622	0	0	-0.2317	0.0443995	-0.0970497	-0.336176	-0.254137	-0.169433	0.751039	0.33497	0	0	-0.299957	-0.223224	-0.150261	0.643662	1.5708	0	0
1.59	-0.145201	1.42929	-1.40811	1.01137	0.367542	0.925098	-0.379868	-0.0108872	-0.314558	0.474203	-0.200702	0	0	0.207113	-0.0473203	-0.416397	0.304743	-0.332637	0	0	-0.220496	0.0405019	-0.0958129	-0.33981	-0.251174	-0.178033	0.743102	0.340656	0	0	-0.301811	-0.222871	-0.152309	0.633082	1.5708	0	0
1.6	-0.135947	1.43468	-1.4171	1.01294	0.355688	0.925092	-0.369971	-0.0196351	-0.305602	0.506872	-0.213071	0	0	0.201316	-0.0370806	-0.398039	0.298185	-0.338078	0	0	-0.210343	0.0380455	-0.0943999	-0.344307	-0.25195	-0.178266	0.73731	0.337309	0	0	-0.304526	-0.221791	-0.155424	0.624164	1.5708	0	0
1.61	-0.131788	1.44187	-1.4198	1.01466	0.343789	0.925052	-0.356392	-0.0281674	-0.296436	0.543898	-0.227031	0	0	0.196572	-0.0269266	-0.373997	0.289671	-0.348189	0	0	-0.197872	0.0362856	-0.0957718	-0.347946	-0.254399	-0.174167	0.730594	0.332957	0	0	-0.308591	-0.220456	-0.16093	0.617221	1.5708	0	0
